<svg width="100" height="100" viewBox="0 0 100 100" fill="none" xmlns="http://www.w3.org/2000/svg">
  <!-- Outer Cylinder -->
  <ellipse cx="50" cy="20" rx="30" ry="10" fill="#4CAF50" />
  <path d="M20 20C20 30 80 30 80 20" stroke="#4CAF50" stroke-width="1" fill="none" />
  <path d="M20 20C20 30 80 30 80 20" fill="#81C784" opacity="0.7" />
  <rect x="20" y="20" width="60" height="40" fill="#4CAF50" />
  <ellipse cx="50" cy="60" rx="30" ry="10" fill="#2E7D32" />

  <!-- Inner Cylinder -->
  <ellipse cx="50" cy="40" rx="20" ry="6" fill="#FFC107" />
  <path d="M30 40C30 46 70 46 70 40" fill="#FFD54F" />
  <rect x="30" y="40" width="40" height="20" fill="#FFC107" />
  <ellipse cx="50" cy="60" rx="20" ry="6" fill="#FFA000" />

  <!-- Management Symbol (Gear) -->
  <circle cx="50" cy="40" r="4" fill="#212121" />
  <path
    d="M50 34L52 36L54 34L56 36L58 34L58 36L56 38L58 40L56 42L58 44L56 46L54 44L52 46L50 44L48 46L46 44L44 46L42 44L44 42L42 40L44 38L42 36L44 34L46 36L48 34L50 36Z"
    fill="#FF7043"
  />

  <!-- Labels -->
  <text x="20" y="90" font-size="12" fill="#37474F">Database Management</text>
</svg>
